<?xml version="1.0" encoding="utf-8"?><svg viewBox="0 0 548 395" xmlns="http://www.w3.org/2000/svg" xmlns:xlink="http://www.w3.org/1999/xlink"><style>:root>svg{display:none}:root>svg:target{display:block}</style><svg fill="none" viewBox="0 0 68 73" id="doc" xmlns="http://www.w3.org/2000/svg"><path d="M33.725.638c-5.838 0-9.332.887-11.553 1.992-1.112.553-1.901 1.135-2.432 1.73-.534.596-.87 1.47-.87 1.47a2.761 2.761 0 00-.173.693l-1.479 18.953c-.02.116.02.304 0 .432l-.172 1.905a2.764 2.764 0 000 .518c0 9.138 7.506 16.615 16.679 16.615 9.173 0 16.679-7.477 16.679-16.615v-.432-.086l-1.651-21.29a2.761 2.761 0 00-.173-.692s-.336-.875-.87-1.47c-.53-.599-1.32-1.18-2.432-1.731C43.057 1.522 39.563.638 33.725.638zm0 44.308C15.378 44.946.367 53.547.367 61.301v11.337h66.716V61.301c0-7.366-13.571-15.48-30.664-16.269a39.879 39.879 0 00-2.694-.086zm0-38.77c5.282 0 7.92.832 9.034 1.385.373.186.417.258.523.347L44.41 22.1c-2.558.155-6.044.692-10.686.692s-8.126-.537-10.686-.692l1.129-14.192c.103-.089.15-.161.523-.347 1.114-.553 3.752-1.384 9.034-1.384zm-2.26 2.77v3.29h-3.3v4.5h3.303v3.287h4.514v-3.29h3.303v-4.497h-3.303v-3.29h-4.517zm-6.08 42.23L32.51 67.1H5.927v-5.799c0-2.063 7.088-8.105 19.459-10.124zm16.68 0c12.37 2.022 19.458 8.062 19.458 10.125V67.1H34.94l7.124-15.923z" fill="#EC5863"/></svg><svg fill="none" viewBox="0 0 548 395" id="doc-with-child" xmlns="http://www.w3.org/2000/svg"><path opacity=".6" d="M318.251 69.55c-35.068-1.22-68.493-12.548-100.363-24.94-31.869-12.391-63.457-26.123-97.703-32.69-22.019-4.227-47.2-4.822-64.938 6.99C38.175 30.273 32.66 49.89 29.695 68.093c-2.232 13.697-3.526 28.11 2.573 40.934 4.246 8.9 11.78 16.383 16.992 24.909 18.13 29.667 5.314 66.252-14.338 95.243-9.216 13.606-19.908 26.552-27.02 41.019-7.11 14.468-10.404 31.042-4.18 45.797 6.17 14.614 20.866 25.61 36.79 33.335 32.343 15.677 70.453 20.162 107.615 22.732 82.262 5.629 164.968 3.19 247.446.751 30.525-.907 61.186-1.819 91.212-6.551 16.675-2.625 33.894-6.788 46.001-16.836 15.366-12.76 19.178-34.358 8.879-50.358-17.274-26.829-65.033-33.496-77.11-62.29-6.643-15.849.181-33.506 9.841-48.206 20.714-31.53 55.444-59.196 57.272-95.242 1.259-24.758-15.436-49.546-41.252-61.262-27.055-12.291-64.575-10.74-84.533 9.574-20.553 20.928-56.673 28.981-87.631 27.908z" fill="#587EEC"/><path d="M122.436 365.36s-27.7-20.953-32.932-47.606a52.692 52.692 0 00-16.222-29.082 88.646 88.646 0 00-12.978-9.675" stroke="#9AB1F3" stroke-width="2" stroke-miterlimit="10"/><path d="M56.915 262.206c2.427 3.286 3.525 17.209 3.525 17.209s-12.978-5.114-15.411-8.395a7.404 7.404 0 011.539-10.353 7.396 7.396 0 0110.347 1.539zM80.192 273.131c.252 4.077-6.38 16.363-6.38 16.363s-8.124-11.359-8.381-15.435a7.399 7.399 0 016.92-7.755 7.39 7.39 0 017.836 6.827h.005zM102.755 304.536c-1.834 3.649-13.764 10.905-13.764 10.905s-1.275-13.908.558-17.557a7.39 7.39 0 0113.541 1.062 7.407 7.407 0 01-.335 5.59zM114.484 332.131c-1.194 3.906-11.725 13.072-11.725 13.072s-3.61-13.49-2.417-17.401a7.395 7.395 0 019.234-4.91 7.396 7.396 0 014.908 9.239zM61.805 299.371c4.029.544 16.765-5.211 16.765-5.211s-10.747-8.909-14.796-9.453a7.397 7.397 0 00-6.862 11.82 7.39 7.39 0 004.893 2.844zM75.931 331.476c4.03-.69 14.44-9.988 14.44-9.988s-12.924-5.281-16.948-4.591a7.386 7.386 0 00-4.827 3.011 7.401 7.401 0 001.788 10.353 7.394 7.394 0 005.558 1.215h-.01zM93.936 360.8c4.084 0 15.92-7.403 15.92-7.403s-11.84-7.393-15.925-7.393a7.393 7.393 0 00-7.393 7.398 7.393 7.393 0 007.393 7.398h.005z" fill="#587EEC"/><path d="M391.523 184.133s17.073-30.261 42.808-38.979a52.643 52.643 0 0026.652-19.951 88.345 88.345 0 007.852-14.175" stroke="#9AB1F3" stroke-width="2" stroke-miterlimit="10"/><path d="M484.991 105.485c-2.931 2.842-16.574 5.785-16.574 5.785s3.349-13.556 6.28-16.403a7.391 7.391 0 0112.446 5.447 7.4 7.4 0 01-2.152 5.171zM477.275 129.991c-4.029.796-17.057-4.153-17.057-4.153s10.173-9.574 14.177-10.355a7.382 7.382 0 015.642 1.026 7.41 7.41 0 013.202 7.681 7.398 7.398 0 01-5.964 5.801zM449.193 156.538c-3.857-1.336-12.626-12.2-12.626-12.2s13.598-3.115 17.466-1.779a7.383 7.383 0 014.302 3.747 7.4 7.4 0 01-6.265 10.663 7.395 7.395 0 01-2.877-.431zM423.388 171.837c-4.029-.665-14.485-9.912-14.485-9.912s12.888-5.372 16.912-4.707a7.399 7.399 0 014.812 2.99 7.408 7.408 0 01-1.699 10.333 7.394 7.394 0 01-5.515 1.291l-.025.005zM448.841 115.241c-.005 4.087 7.403 15.944 7.403 15.944s7.398-11.842 7.398-15.924a7.398 7.398 0 00-7.39-7.591 7.388 7.388 0 00-5.296 2.236 7.389 7.389 0 00-2.095 5.355l-.02-.02zM418.91 133.513c1.219 3.901 11.815 12.996 11.815 12.996s3.526-13.515 2.297-17.415a7.4 7.4 0 00-3.663-4.154 7.387 7.387 0 00-9.798 3.071 7.403 7.403 0 00-.641 5.502h-.01zM392.284 155.268c.544 4.031 9.448 14.8 9.448 14.8s5.746-12.724 5.202-16.771a7.404 7.404 0 00-5.412-6.329 7.386 7.386 0 00-7.868 2.722 7.41 7.41 0 00-1.37 5.578z" fill="#587EEC"/><path opacity=".25" d="M484.991 105.485c-2.931 2.842-16.574 5.785-16.574 5.785s3.349-13.556 6.28-16.403a7.391 7.391 0 0112.446 5.447 7.4 7.4 0 01-2.152 5.171zM477.275 129.991c-4.029.796-17.057-4.153-17.057-4.153s10.173-9.574 14.177-10.355a7.382 7.382 0 015.642 1.026 7.41 7.41 0 013.202 7.681 7.398 7.398 0 01-5.964 5.801zM449.193 156.538c-3.857-1.336-12.626-12.2-12.626-12.2s13.598-3.115 17.466-1.779a7.383 7.383 0 014.302 3.747 7.4 7.4 0 01-6.265 10.663 7.395 7.395 0 01-2.877-.431zM423.388 171.837c-4.029-.665-14.485-9.912-14.485-9.912s12.888-5.372 16.912-4.707a7.399 7.399 0 014.812 2.99 7.408 7.408 0 01-1.699 10.333 7.394 7.394 0 01-5.515 1.291l-.025.005zM448.841 115.241c-.005 4.087 7.403 15.944 7.403 15.944s7.398-11.842 7.398-15.924a7.398 7.398 0 00-7.39-7.591 7.388 7.388 0 00-5.296 2.236 7.389 7.389 0 00-2.095 5.355l-.02-.02zM418.91 133.513c1.219 3.901 11.815 12.996 11.815 12.996s3.526-13.515 2.297-17.415a7.4 7.4 0 00-3.663-4.154 7.387 7.387 0 00-9.798 3.071 7.403 7.403 0 00-.641 5.502h-.01zM392.284 155.268c.544 4.031 9.448 14.8 9.448 14.8s5.746-12.724 5.202-16.771a7.404 7.404 0 00-5.412-6.329 7.386 7.386 0 00-7.868 2.722 7.41 7.41 0 00-1.37 5.578z" fill="#000"/><path d="M392.505 183.533s3.354-34.59 23.328-52.983a52.703 52.703 0 0016.287-29.046 88.369 88.369 0 001.456-16.126" stroke="#9AB1F3" stroke-width="2" stroke-miterlimit="10"/><path d="M446.096 73.707c-1.511 3.79-12.812 12.014-12.812 12.014s-2.428-13.752-.902-17.542a7.392 7.392 0 0113.664-.12 7.4 7.4 0 01.05 5.663v-.015zM448.972 99.266c-3.339 2.349-17.275 3.12-17.275 3.12s5.429-12.87 8.768-15.219a7.396 7.396 0 015.59-1.383 7.388 7.388 0 014.887 3.048 7.397 7.397 0 011.218 5.631 7.4 7.4 0 01-3.188 4.798v.005zM434.034 134.934c-4.069.343-16.488-6.047-16.488-6.047s11.18-8.365 15.249-8.708a7.395 7.395 0 017.988 6.753 7.399 7.399 0 01-6.749 7.992v.01zM416.654 159.37c-3.953 1.008-17.269-3.16-17.269-3.16s9.604-10.134 13.557-11.162a7.394 7.394 0 018.229 10.911 7.397 7.397 0 01-4.517 3.411zM417.007 97.311c1.652 3.734 13.205 11.59 13.205 11.59s1.964-13.828.312-17.562a7.393 7.393 0 00-9.68-3.61 7.402 7.402 0 00-3.837 9.597v-.015zM397.043 126.146c2.694 3.069 16.061 7.09 16.061 7.09s-2.257-13.782-4.951-16.851a7.387 7.387 0 00-10.501-.756 7.363 7.363 0 00-1.766 2.314 7.382 7.382 0 00-.33 5.7c.325.925.83 1.775 1.487 2.503zM381.486 156.845c2.135 3.477 14.63 9.701 14.63 9.701s.106-13.964-2.014-17.446a7.394 7.394 0 00-12.591 7.745h-.025z" fill="#587EEC"/><path d="M366.82 48.072c.836-3.069 1.844-6.153 2.549-9.262-.846 3.11-1.859 6.203-2.549 9.262z" fill="url(#bpaint0_linear_4_6)"/><path d="M363.073 77.633c-.07-.121-.12-.242-.176-.353 0-.05-.05-.09-.07-.141a3.18 3.18 0 01-.338.136 7.594 7.594 0 01-.68.232c-.231.065-.327.1-.503.14-.146.051-.296.09-.449.117l.041.09c.186-.04.367-.075.554-.126l.05.625c.212 0 .408-.03.599-.03.091-.005.182-.005.272 0h1.008c-.106-.227-.217-.464-.308-.69zm102.236 162.834c-2.367-3.19-7.091-37.427-7.091-37.427s-9.292-24.345-6.758-34.06c2.533-9.716-6.92-34.575-6.92-34.575s-6.245-2.716-6.583-6.747c0 0-25.498-8.063-26.692-14.11-.967-4.959-16.781-8.517-22.461-9.641-1.733-6.994-3.475-13.52-4.76-17.083a40.5 40.5 0 00-.977-2.822c-2.17-5.543-8.879-6.047-13.744-5.603a7.483 7.483 0 00-1.153-2.636 1.446 1.446 0 00-.458-.7 2.707 2.707 0 00-.333-.242 1.599 1.599 0 00-.342-.434 2.409 2.409 0 00-.453-.322 3.047 3.047 0 00-.363-.166 4.86 4.86 0 00-.901-.247 7.436 7.436 0 00-1.088-.141 6.618 6.618 0 002.321-1.699c.436-.512.76-1.109.952-1.753.16-.536.231-1.094.212-1.653-.131.23-.283.448-.453.65.211-2.233-.967-4.5-1.642-6.723a19.897 19.897 0 01-.443-8.894c.674-4.465 2.346-8.98 3.48-13.525a.477.477 0 000-.076 35.083 35.083 0 001.097-6.899c.197-4.701-1.007-9.393-2.941-13.676-1.717-3.795-4.25-7.529-8.128-9.07-2.881-1.165-6.109-.979-9.212-1.17-6.96-.433-13.597-2.883-20.215-5.11-6.618-2.227-13.427-4.253-20.392-3.865-6.965.388-14.132 3.75-17.309 9.917-1.008 1.925-1.587 4.067-2.791 5.876-2.256 3.412-6.295 5.12-9.664 7.473-3.369 2.354-6.336 5.695-7.554 9.68a12.911 12.911 0 00-.272 6.627c.109.496.251.984.423 1.462a10.358 10.358 0 002.19 3.583c.73.763 1.568 1.413 2.488 1.93a14.64 14.64 0 003.677 1.43c-.046.152-.091.313-.141.47-.081.257-.151.503-.227.78-.166.62-.322 1.25-.453 1.885a.618.618 0 000 .136 41.19 41.19 0 00-.715 12.876c2.014 20.45 18.886 36.58 39.731 37.628.715.035 1.435.055 2.165.055h1.008c.327.434.649.877.956 1.311.308.433.59.877.857 1.31l-.731-.756-.73-.67a5.973 5.973 0 01-.66.761 12.244 12.244 0 00-1.455-.414c-2.09-.463-5.273-.634-9.463.63-3.853 1.154-8.562 3.528-14.072 8.038l-26.848 16.126-14.524 8.839-5.233 12.799s-3.933 15.209-8.31 32.635c-.171.05-.337.1-.503.161a9.814 9.814 0 00-7.883 2.671 9.825 9.825 0 00-3.016 6.697c-8.703 10.582-9.196 21.165-7.151 26.023.185.455.418.889.695 1.295 1.339 1.935 3.842 6.924 6.381 12.24-.066.439-.106.807-.126 1.084-.005.09-.005.181 0 .272 0 0 1.51 22.833-3.526 29.379-1.103 1.426-.937 3.301 0 5.377 3.375 7.468 16.716 17.441 16.716 17.441s16-.086 24.914-1.059c-.025.897-.045 1.789-.066 2.661-.201 8.809-.201 16.191-.201 16.191l-.332 9.237s-3.022 19.467-4.533 24.834c-.952 3.366.146 34.534 1.103 57.448h157.645c1.853-13.556-.761-54.742-.761-54.742s-2.483-10.648-2.573-19.93a.08.08 0 01-.008-.033c0-.011.003-.023.008-.033 0-.811 0-1.602.03-2.378l1.143-.041 2.055-.07h.186s.051-.192.166-.504a9.638 9.638 0 011.103-2.202c.877-1.295 2.247-2.565 4.306-2.651 1.139-.045 2.901-.968 4.891-2.328a.09.09 0 00.04 0c5.353-3.623 12.429-10.311 14.147-11.409 2.362-1.512 13.673-11.59 13.673-11.59s1.687-2.137 3.485-4.712l.066-.091c2.236-3.225 4.613-7.08 4.029-8.295-1.008-2.176.675-7.382.675-7.382 5.252-9.62-.313-22.369-2.68-25.559zM367.923 85.469c.049.15.079.306.091.463-.126-.166-.252-.342-.378-.504l-.121-.16-.085-.122.191-.262v.035c.133.164.235.35.302.55zm-1.692-4.465c-.549.11-.982.212-1.264.287-.358-.635-.7-1.27-1.007-1.915a14.603 14.603 0 012.271 1.628zm-.947.796a.153.153 0 010-.03l.041.03c.206.136.408.267.594.403.166.121.317.237.468.358a4.82 4.82 0 01-.322.504 24.116 24.116 0 01-.504-.821c-.1-.111-.191-.262-.277-.444zm-3.021-6.218a14.884 14.884 0 012.926 0c.136 0 .256.025.377.045.273.042.542.112.801.207a5.86 5.86 0 011.063 2.827l-.272.04-.267.05c-.504.086-1.007.172-1.4.252l-.504.106c-.67.146-1.057.257-1.073.262a9.654 9.654 0 00-.201-.393c-.111-.216-.227-.438-.327-.655-.101-.217-.232-.464-.338-.69-.07-.121-.121-.242-.176-.353 0-.05-.05-.09-.071-.141a1.249 1.249 0 01-.075-.166 50.97 50.97 0 01-.861-1.865c-.031-.06-.056-.126-.081-.187l.383-.025v.131l.096.555zm-120.16 312.606c-.041-7.503-.585-15.622-2.096-23.241a779.518 779.518 0 00-1.984-9.665c-.171-.797-.337-1.583-.503-2.369l-1.552.207h-.141c-4.23-19.961-8.652-37.548-8.652-37.548s-8.783-33.556-7.766-36.232c.131-.348-.035-1.285-.408-2.661-2.125-7.629-10.999-28.653-14.101-35.839 0-.031-.025-.066-.036-.091a72.029 72.029 0 00-.977-2.253l.731-10.723.04-.645.096-1.371-.041-.035.041-.635s-7.665-6.289-20.649-10.83a55.102 55.102 0 00-1.566-.529c.649-4.338 1.511-9.237 2.634-14.009.106-.479.221-.942.342-1.411.106-.468.227-.922.348-1.381.191-.745.398-1.481.609-2.207.7-.222 1.39-.468 2.07-.73l.262-.101a37.17 37.17 0 0019.453-17.417 37.205 37.205 0 003.21-25.921 36.986 36.986 0 00-6.487-13.682 27.237 27.237 0 00-1.546-1.894c1.456-3.311 3.173-6.461 3.314-9.681a9.997 9.997 0 000-1.224v-.051c-.186-2.071-1.103-4.167-3.238-6.369-3.118-3.231-7.555-4.868-11.992-5.655-4.437-.786-8.959-.806-13.421-1.335-7.398-.887-14.605-3.17-22.004-3.87a52.254 52.254 0 00-26.606 4.535c-5.505 2.52-11.08 6.924-11.412 12.966-.272 4.994 3.203 9.782 2.326 14.715-.871 4.848-5.806 8.663-5.373 13.566.166 1.915 1.148 3.628 2.377 5.155.423.504.871 1.008 1.335 1.512 1.792 1.9 3.767 3.724 4.769 6.117.04.101.08.202.116.303.851 2.363.468 5.351-1.637 6.707.012.009.02.021.025.035.03.041.061.071.086.111a.036.036 0 000-.025 5.51 5.51 0 002.875 1.794l.428.131c-.347.378-.674.771-1.007 1.184l-.216.287c-.555.747-1.06 1.53-1.511 2.344a17.36 17.36 0 00-.71 1.36 17.097 17.097 0 00-1.486 4.369c-.539 3.336.222 6.813-.594 10.079-1.008 4.031-4.195 7.125-5.993 10.87-3.405 7.055-1.476 15.334-.791 23.125.932 10.582-.579 21.21-2.085 31.722l-2.397 16.786-6.044 42.169c-.735 5.15-1.606 10.582-5.036 14.558h.035s0 .03-.035.04c1.03.451 2.124.733 3.243.837 4.477.448 9.222-1.719 13.251-4.087a62.737 62.737 0 009.03-6.344 824.863 824.863 0 00-1.33 4.933.209.209 0 010 .05c-5.686 21.669-14.832 61.394-14.832 61.394s-.831 1.728-1.908 4.303h142.022a248.272 248.272 0 01-4.417-5.502l-.488-.701zM136.946 187.826c.035-.06.06-.115.095-.171v1.094c0 .07 0 0 0 0 0 .206-.045.413-.08.62v.045l.503.186.585.242a150.746 150.746 0 0010.485 3.704c.363.116.73.227 1.098.333l.075.625c.091.64.177 1.29.257 1.94v.05c.227 1.799.449 3.593.645 5.347 0 0-9.247-3.528-9.131 1.829a2.747 2.747 0 000 .287c-.01.128-.01.256 0 .383.086 4.173 1.39 6.647 1.652 7.917a.367.367 0 01-.08.141 2.752 2.752 0 00-.222 1.557 15.35 15.35 0 00.211 2.691c-.272.166-.538.333-.805.504-.202.126-.393.267-.59.408a74.815 74.815 0 00-4.829-12.457c-1.385-2.852-2.942-5.825-2.926-8.955 0-.201 0-.408.025-.614.056-.907.229-1.803.513-2.666.116-.328.242-.65.383-.968.329-.754.697-1.491 1.103-2.207.262-.474.539-.942.806-1.416.086-.141.166-.287.247-.428l-.02-.021zM363.073 77.633c-.07-.121-.12-.242-.176-.353 0-.05-.05-.09-.07-.141a3.18 3.18 0 01-.338.136 7.594 7.594 0 01-.68.232c-.231.065-.327.1-.503.14l-.449.117.041.09c.186-.04.367-.075.554-.126l.05.625c.212 0 .408-.03.599-.03h1.28c-.106-.227-.217-.464-.308-.69z" fill="url(#bpaint1_linear_4_6)"/><path d="M253.031 151.65l-3.021 1.335s-19.697 76.567-19.697 82.755c0 6.188 41.765 40.622 41.765 40.622l6.517-44.014s-9.357-100.931-25.564-80.698z" fill="#E8F5FF"/><path d="M344.646 127.295l-17.451-9.111a34.968 34.968 0 00-5.117-11.666c-2.553-3.689-5.948-7.312-10.178-9.202-10.692-4.797 45.225-29.979 45.225-29.979a90.942 90.942 0 003.108 8.92c2.881 7.115 7.66 16.317 13.819 18.938 10.471 4.46-29.406 32.1-29.406 32.1z" fill="#FFB0B1"/><path opacity=".1" d="M360.233 76.257a41.716 41.716 0 01-14.204 21.282 41.675 41.675 0 01-23.951 8.979c-2.553-3.689-5.948-7.312-10.178-9.202-10.692-4.797 45.225-29.979 45.225-29.979a90.942 90.942 0 003.108 8.92z" fill="#000"/><path d="M361.804 63.543a41.709 41.709 0 01-7.017 23.165 41.67 41.67 0 01-18.697 15.359 41.642 41.642 0 01-45.41-9.033 41.712 41.712 0 01-9.034-45.436 41.683 41.683 0 0115.348-18.71 41.648 41.648 0 0123.15-7.025 41.45 41.45 0 0129.513 12.15 41.508 41.508 0 0112.147 29.529z" fill="#FFB0B1"/><path d="M367.817 121.943l-11.361 26.527-10.022 17.607h-32.081l-9.358-24.073 3.793-24.964h24.501l15.819-.892 5.343-1.784 3.445 1.955 9.921 5.624z" fill="#575A89"/><path opacity=".1" d="M363.904 86.582s7.086 1.512.741 6.718c-6.346 5.205-28.239 21.759-28.239 21.759s7.691 6.854 6.099 14.881l25.479-14.21 4.532-22.738s.509-6.833-8.612-6.41z" fill="#000"/><path opacity=".1" d="M341.417 115.059l-16.206 2.676s3.344 12.372 1.672 15.884a2.25 2.25 0 00-.126.338l-6.613 17.884 4.956 14.045 17.153-23.408-5.847-8.859s6.18-8.194 9.856-11.036c3.677-2.842-4.845-7.524-4.845-7.524z" fill="#000"/><path d="M341.417 114.369l-16.206 2.671s3.344 12.371 1.672 15.884a2.28 2.28 0 00-.126.337l-6.613 17.885 4.956 14.044 17.153-23.422-5.847-8.86s6.18-8.193 9.856-11.036c3.677-2.842-4.845-7.503-4.845-7.503z" fill="#DCE6F2"/><path d="M364.584 85.247s7.086 1.512.736 6.717c-6.351 5.206-28.914 23.095-28.914 23.095s8.356 5.518 6.769 13.541l25.479-14.206 4.532-22.737s.504-6.833-8.602-6.41z" fill="#575A89"/><path opacity=".1" d="M323.191 108.095s1.547 2.893 8.371 8.108c0 0-11.362 6.047-7.016 14.549l-17.38-4.536-2.674-8.36 18.699-9.761z" fill="#000"/><path d="M322.521 107.43s1.546 2.892 8.371 8.108c0 0-11.362 6.017-7.016 14.543l-17.375-4.535-2.674-8.355 18.694-9.761z" fill="#575A89"/><path opacity=".1" d="M367.817 121.943l-11.361 26.527-10.002 17.607h-32.101l-9.358-24.073 3.788-24.964h6.814c-.111 5.825 2.014 12.669 1.878 15.213-.232 4.183 6.235 26.749 6.235 26.749s13.532-21.901 18.876-23.851c3.359-1.225 10.475-11.414 15.305-18.832l9.926 5.624z" fill="#000"/><path d="M412.575 261.536l-1.154 1.451s8.356 41.962 6.044 51.492a27.096 27.096 0 00-.67 5.23v.076c-.408 9.696 2.518 22.279 2.518 22.279s2.337 37.089 1.007 52.343H263.884c-.916-22.556-1.903-51.779-1.007-55.019 1.511-5.347 4.533-24.743 4.533-24.743l.332-9.192s0-8.884.272-18.781c.116-4.45.287-9.121.534-13.263.317-5.211.76-9.6 1.37-11.757.375-1.635.591-3.302.644-4.979 0-.156 0-.317.031-.479 0-.504.05-1.048.07-1.607v-.504c.096-3.245.061-7.095-.045-11.086v-.661a456.675 456.675 0 00-.353-8.949c-.438-9.071-1.007-16.741-1.007-16.741l-19.213-63.696 5.177-12.76 14.368-8.808 26.567-16.05c12.958-10.659 21.489-9.379 24.743-8.209.316.107.625.234.926.378.101.05.182.09.257.136.104.049.203.106.297.171a6.153 6.153 0 00-2.256 1.859 8.226 8.226 0 00-1.395 3.024c-.17.677-.29 1.366-.357 2.061a25.134 25.134 0 00-.091 2.248c.036 1.668.179 3.333.428 4.983v.111c.166 1.179.373 2.333.574 3.417a.253.253 0 000 .055c.232 1.265.464 2.434.62 3.442.03.182.055.348.08.504.111.666.163 1.341.156 2.016.057 1.63.276 3.251.655 4.837.131.666.282 1.376.448 2.117.227 1.008.474 2.106.741 3.225.146.615.302 1.25.463 1.88.06.252.126.504.186.761l.101.398a476.798 476.798 0 002.951 11.086c.423 1.512.69 2.444.69 2.444s7.585-12.27 13.638-19.255c.091-.101.172-.196.257-.287.6-.69 1.189-1.32 1.753-1.875 1.234-1.229 2.342-2.106 3.233-2.429.19-.069.374-.155.549-.257 2.478-1.406 6.477-6.51 10.219-11.857.367-.504.725-1.053 1.087-1.572.831-1.2 1.637-2.404 2.398-3.558.584-.882 1.143-1.739 1.672-2.555 2.518-3.92 4.291-6.843 4.291-6.843l3.495-.156.609-.031h.408l15.869-.735s.685.115 1.813.342c.061 0 .121 0 .187.041 5.63 1.118 21.273 4.661 22.23 9.574 1.168 6.017 26.4 14.045 26.4 14.045.332 4.031 6.512 6.687 6.512 6.687s9.357 24.743 6.854 34.438c-2.473 9.575 6.436 33.259 6.673 33.925l-1.707 2.156-42.239 53.462z" fill="#E8F5FF"/><path opacity=".1" d="M363.899 84.824s15.446-4.384 18.957 4.641c3.51 9.025 11.362 45.474 11.362 45.474s-20.387 3.845-25.731 0a15.386 15.386 0 00-10.863-2.842l-11.528 7.856-3.404-1.007s18.442-27.434 22.451-36.757c4.009-9.322 5.364-13.49-1.244-17.365z" fill="#000"/><path d="M363.23 82.808s15.456-4.384 18.981 4.641c3.526 9.026 11.362 45.475 11.362 45.475s-20.382 3.845-25.73 0a15.375 15.375 0 00-10.858-2.843l-11.538 7.857-3.405-1.008s18.443-27.434 22.452-36.757c4.008-9.322 5.343-13.48-1.264-17.365z" fill="#E8F5FF"/><path opacity=".1" d="M259.548 228.216s11.528 2.842 13.704 9.363c2.176 6.521-8.521 6.687-8.521 6.687s-6.517-11.535-5.183-16.05zM302.487 276.362s-28.233 57.845-21.716 63.363c6.517 5.518 21.716-63.363 21.716-63.363zM341.417 233.734s22.558 56.188 18.045 64.866c-4.512 8.678 9.69 0 9.69 0l-27.735-64.866z" fill="#000"/><path d="M372.829 289.237s-76.189 3.679-53.964 27.419c22.225 23.74 67.834 1.007 67.834 1.007l-13.87-28.426z" fill="#FFB0B1"/><path opacity=".1" d="M361.804 63.543a41.523 41.523 0 01-3.157 15.934c-.7.08-1.4.131-2.075.161-1.008-2.212-.469-4.767-.449-7.2.021-2.435-.876-5.297-3.218-5.952-4.668-1.316-7.892 7.417-12.495 5.84-3.525-1.2-2.603-6.55-4.633-9.64-1.607-2.444-4.825-3.134-7.328-4.666-5.323-3.27-5.162-8.502-7.635-13.45-2.588-5.185-8.058-3.654-12.807-.595-3.606 2.328-6.718 5.448-10.576 7.302-3.339 1.613-7.091 2.197-10.793 2.283a23.7 23.7 0 01-6.768-.716 41.687 41.687 0 0117.065-23.913 41.647 41.647 0 0154.503 7.117 41.702 41.702 0 0110.361 27.495h.005z" fill="#000"/><path d="M308.022 42.64c-3.611 2.328-6.718 5.442-10.576 7.307-3.339 1.607-7.091 2.192-10.793 2.278-4.532.1-9.412-.696-12.51-3.971-2.845-3.024-3.525-7.675-2.321-11.641 1.203-3.966 4.089-7.256 7.478-9.64 3.39-2.384 7.323-4.031 9.569-7.443 1.189-1.804 1.763-3.93 2.75-5.85 3.158-6.144 10.259-9.47 17.123-9.883 6.865-.413 13.669 1.633 20.206 3.85 6.537 2.218 13.124 4.657 20.024 5.115 3.072.192 6.265 0 9.116 1.164 3.832 1.557 6.345 5.281 8.058 9.07 1.918 4.274 3.112 8.94 2.911 13.607-.423 9.963-7.001 19.739-4.11 29.283.766 2.545 2.201 5.155 1.435 7.7-1.118 3.714-5.907 4.56-9.78 4.737-1.007-2.212-.468-4.772-.448-7.201.02-2.429-.877-5.296-3.213-5.951-4.674-1.306-7.897 7.412-12.49 5.84-3.5-1.204-2.594-6.55-4.629-9.64-1.606-2.45-4.829-3.134-7.327-4.666-5.324-3.27-5.163-8.502-7.635-13.45-2.609-5.21-8.084-3.679-12.838-.615z" fill="#575A89"/><path d="M234.145 234.399l-3.842 1.341s1.51 22.737-3.526 29.258c-5.036 6.521 16.539 22.732 16.539 22.732s29.573-.166 30.409-2.52c.836-2.353-1.511-42.128-1.511-42.128s-15.874-6.188-14.539-16.05c0 0-4.845 23.236-12.027 22.233-7.182-1.002-15.335-7.004-11.503-14.866z" fill="#E8F5FF"/><path opacity=".1" d="M246.963 256.3c5.599 0 10.138-4.153 10.138-9.277s-4.539-9.277-10.138-9.277-10.138 4.153-10.138 9.277 4.539 9.277 10.138 9.277z" fill="#000"/><path d="M258.047 235.07s-2.014-61.52-19.55-47.813-17.708 30.1-14.369 34.942c3.339 4.843 14.046 29.087 14.046 29.087a12.245 12.245 0 0011.121.596 12.261 12.261 0 007.01-8.659l1.742-8.153z" fill="#FFB0B1"/><path opacity=".1" d="M367.44 79.24a1.479 1.479 0 00-.454-.695c-.866-.791-2.729-1.069-5.539-.827l.115 1.33c3.747-.322 4.488.424 4.583.55v.126l.116.166a5.634 5.634 0 011.007 4.434c-.82 4.108-5.862 7.378-5.912 7.414l-.121.07-.075.116c-2.176 3.23-14.48 12.346-17.698 14.705l-.282-.323c-1.44 1.25-14.101 12.341-14.786 16.589-.444 2.666-3.445 3.699-4.533 3.987-1.148-.872-4.875-3.84-6.814-7.166-1.818-3.13 5.5-9.237 6.144-11.621l-1.007-1.033c-.106.383-9.503 9.172-6.89 13.662 2.095 3.603 5.923 6.687 7.263 7.705-.428 3.89-3.093 26.733-7.187 32.145-5.087 6.728-9.362 40.632-8.889 52.469.418 10.517-2.327 30.382-11.493 38.913a14.685 14.685 0 01-12.122 4.032h-.222c-.131 0-13.426 1.36-24.597-8.063-9.14-7.695-14.318-20.253-15.395-37.336h-.222l-.091-4.974a9.703 9.703 0 00-2.269-19.254 9.691 9.691 0 00-6.488 3.243 9.705 9.705 0 00.572 13.447 9.692 9.692 0 006.74 2.68h.111l.09 4.944-.443.03c1.108 17.637 6.547 30.684 16.116 38.742a37.256 37.256 0 0025.992 8.511c.669.073 1.342.11 2.015.111a16.514 16.514 0 0011.583-4.661c9.655-8.995 12.591-29.591 12.132-40.466-.503-12.543 3.984-45.227 8.486-51.179 4.412-5.84 7.086-28.598 7.555-33.007 1.596-.448 5.207-1.864 5.822-5.543.443-2.661 8.899-10.86 14.101-15.4l-.156-.182c2.8-2.045 11.508-8.496 15.824-12.638 1.34-1.285 2.669-2.57 4.059-3.795 1.672-1.481 3.798-3.834 4.357-6.616a6.89 6.89 0 00-1.098-5.342z" fill="#000"/><path d="M322.386 128.111c-.212-.146-5.228-3.739-7.741-8.063-2.609-4.49 6.789-13.273 6.889-13.656l1.008 1.033c-.64 2.378-7.958 8.491-6.139 11.615 2.291 3.946 7.116 7.398 7.166 7.433l-1.183 1.638z" fill="#353146"/><path d="M342.808 107.606l-.786-1.083c.161-.116 15.98-11.565 18.473-15.27l.08-.11.116-.076c.051-.035 5.092-3.3 5.913-7.412a5.59 5.59 0 00-1.007-4.43l-.116-.171v-.121c-.101-.131-.841-.872-4.588-.55l-.116-1.335c2.815-.242 4.674.035 5.54.827.215.185.374.428.458.7a6.866 6.866 0 011.122 2.555c.196.92.202 1.87.016 2.792-.559 2.787-2.679 5.14-4.356 6.616-1.385 1.225-2.72 2.52-4.054 3.795-5.062 4.853-16.141 12.875-16.695 13.273zM241.689 203.861l-1.334.024.149 8.117 1.334-.024-.149-8.117z" fill="#E8F5FF"/><path d="M240.244 205.091c5.382 0 9.745-4.366 9.745-9.751s-4.363-9.751-9.745-9.751c-5.382 0-9.745 4.366-9.745 9.751s4.363 9.751 9.745 9.751z" fill="#587EEC"/><path d="M240.244 203.438a8.096 8.096 0 008.094-8.098 8.096 8.096 0 00-8.094-8.098c-4.47 0-8.093 3.626-8.093 8.098a8.095 8.095 0 008.093 8.098z" fill="#E8F5FF"/><path d="M284.14 257.419a18.559 18.559 0 01-2.014-.106 37.307 37.307 0 01-25.992-8.511c-9.569-8.063-14.998-21.095-16.116-38.747l2.014-.126c1.078 17.083 6.255 29.646 15.401 37.336 11.17 9.398 24.461 8.063 24.592 8.063h.222a14.71 14.71 0 0012.127-4.032c9.161-8.531 11.906-28.396 11.488-38.913-.504-11.847 3.772-45.752 8.863-52.474 4.457-5.891 7.222-32.443 7.253-32.71l.075-.756.745-.131c.046 0 4.397-.826 4.941-4.082.705-4.243 13.346-15.334 14.781-16.589l1.315 1.512c-5.223 4.535-13.679 12.739-14.102 15.405-.614 3.689-4.225 5.1-5.817 5.543-.503 4.414-3.157 27.167-7.554 33.007-4.502 5.952-8.99 38.636-8.486 51.179.433 10.875-2.473 31.475-12.127 40.465a16.52 16.52 0 01-11.609 4.667z" fill="#353146"/><g opacity=".1" fill="#000"><path opacity=".1" d="M366.095 51.63c.826-3.054 1.823-6.128 2.518-9.222-.831 3.11-1.833 6.168-2.518 9.222zM357.67 75.627c-1.008-2.212-.469-4.772-.449-7.201.02-2.429-.876-5.271-3.213-5.952-4.673-1.305-7.897 7.418-12.49 5.841-3.525-1.204-2.593-6.551-4.628-9.64-1.607-2.45-4.825-3.134-7.323-4.666-5.328-3.27-5.167-8.502-7.635-13.45-2.593-5.19-8.058-3.659-12.812-.595-3.611 2.328-6.718 5.447-10.576 7.307-3.339 1.608-7.091 2.192-10.793 2.278-4.507.106-9.413-.696-12.51-3.971-2.387-2.52-3.248-6.214-2.755-9.676-.085.237-.161.474-.236.711-1.209 3.966-.504 8.627 2.321 11.64 3.098 3.276 8.003 4.072 12.51 3.972 3.707-.086 7.454-.67 10.798-2.278 3.868-1.865 6.975-4.979 10.576-7.307 4.754-3.064 10.224-4.596 12.812.595 2.468 4.948 2.312 10.179 7.635 13.45 2.519 1.511 5.717 2.217 7.328 4.666 2.015 3.099 1.123 8.436 4.629 9.64 4.588 1.572 7.811-7.146 12.484-5.84 2.337.654 3.239 3.527 3.214 5.95-.026 2.425-.549 4.99.448 7.202 3.873-.177 8.662-1.008 9.785-4.737a5.432 5.432 0 00.212-1.648c-1.637 2.827-5.847 3.553-9.332 3.709z"/></g><path opacity=".1" d="M448.69 199.795l5.847 6.188s4.679 34.101 7.015 37.291c2.337 3.19 7.857 15.878 2.675 25.408 0 0-1.672 5.185-.67 7.357 1.002 2.172-7.514 13.042-7.514 13.042s-11.196 10.028-13.538 11.535c-2.342 1.506-14.701 13.54-18.876 13.706-4.175.167-5.539 5.352-5.539 5.352l-23.56.837s-13.014-.681-15.844 1.159c0 0 1.511-19.895-13.029-32.937l18.544-6.687s7.02-3.024 9.191-6.183a11.345 11.345 0 015.54-4.178s5.177-3.679 5.343-5.684c.166-2.006 6.331-4.465 6.331-4.465l-3.49-29.807 1.838-49.486s5.847-41.463 18.211-39.12c12.364 2.343 21.525 56.672 21.525 56.672z" fill="#000"/><path d="M450.704 199.795l5.847 6.188s4.679 34.101 7.016 37.291c2.337 3.19 7.856 15.878 2.674 25.408 0 0-1.667 5.185-.665 7.357 1.003 2.172-7.519 13.042-7.519 13.042s-11.195 10.028-13.537 11.535c-2.342 1.506-14.701 13.54-18.876 13.706-4.175.167-5.54 5.352-5.54 5.352l-23.56.837s-13.023-.681-15.844 1.159c0 0 1.511-19.895-13.028-32.937l18.543-6.687s7.021-3.024 9.191-6.183a11.354 11.354 0 015.54-4.178s5.177-3.679 5.343-5.684c.167-2.006 6.331-4.465 6.331-4.465l-3.49-29.807 1.838-49.486s5.847-41.463 18.211-39.12c12.364 2.343 21.525 56.672 21.525 56.672z" fill="#E8F5FF"/><path opacity=".1" d="M428.968 249.784s17.209-4.535 21.721 1.008c4.513 5.544-21.721-1.008-21.721-1.008zM424.959 257.389c5.847 4.097 23.892 4.263 23.892 4.263l-23.892-4.263zM433.813 277.868c.503.167 12.404 12.876 17.4 9.031 4.996-3.845-17.4-9.031-17.4-9.031zM273.539 171.207s3.495 24.078 1.773 33.884c-1.723 9.807 4.563 21.956 4.563 21.956l-6.336-55.84z" fill="#000"/><path d="M196.162 180.998c-4.029 3.16-6.97 10.638-9.101 18.857-3.716 14.337-4.93 30.962-4.93 30.962s-32.081-7.358-29.744-10.699c1.47-2.101-.504-17.935-2.151-29.414-.982-6.783-1.858-12.049-1.858-12.049s58.813-6.354 47.784 2.343z" fill="#FFB0B1"/><path opacity=".1" d="M196.162 180.328c-4.029 3.165-6.97 10.638-9.101 18.857a36.995 36.995 0 01-36.825-9.146c-.982-6.788-1.858-12.054-1.858-12.054s58.813-6.35 47.784 2.343z" fill="#000"/><path d="M213.406 162.318a37.144 37.144 0 01-8.739 23.949 37.09 37.09 0 01-47.179 8.07 37.129 37.129 0 01-16.194-19.684 37.16 37.16 0 01.311-25.494 37.125 37.125 0 0116.67-19.282 37.087 37.087 0 0146.967 9.22 37.12 37.12 0 018.164 23.221z" fill="#FFB0B1"/><path opacity=".1" d="M242.656 394.407H232.08l-.891-18.691-.932-19.346s2.402-.358 6.23-.892l1.546-.207h.126a841.565 841.565 0 012.458 11.984 123.257 123.257 0 012.06 21.669v1.481c.03 1.346 0 2.691-.021 4.002z" fill="#000"/><path d="M240.627 394.407H107.992a69.39 69.39 0 01.957-2.097s10.611-46.452 16.005-66.105a.209.209 0 000-.05 78.633 78.633 0 012.438-7.887c.061-.176.141-.344.237-.504 2.669-4.344 6.013-9.025 1.334-15.712-4.679-6.687-3.022-36.112-3.022-36.112s5.681-25.08 11.695-38.454a17.974 17.974 0 013.817-5.544 15.628 15.628 0 011.672-1.421c.449-.337.916-.648 1.4-.932l.096-.06a20.19 20.19 0 018.224-2.555 23.429 23.429 0 016.169.171c9.751 1.431 17.557 3.825 23.762 6.551 16.816 7.393 21.907 17.3 22.008 17.507l.04.085c.675 1.577 10.546 24.637 14.102 35.396.921 2.802 1.425 4.772 1.224 5.311-1.008 2.671 7.685 36.107 7.685 36.107s4.029 16.126 8.058 35.028c.176.786.342 1.572.503 2.368a885.958 885.958 0 012.126 10.422 122.577 122.577 0 012.06 21.82c.074 2.281.089 4.503.045 6.667z" fill="#EB5569"/><path opacity=".1" d="M152.054 205.474s-9.15-3.527-9.04 1.824c.111 5.352 2.231 7.912 1.562 8.693-.67.781.332 5.463.332 5.463s12.364 0 18.045 2.56c5.681 2.56 26.621 7.689 29.296 9.252 2.674 1.562 12.59 8.566 12.59 8.566l.892-13.263s-10.249-8.471-27.065-12.815c-16.816-4.344-26.612-10.28-26.612-10.28z" fill="#000"/><path d="M152.054 204.804s-9.15-3.528-9.04 1.824c.111 5.352 2.231 7.912 1.562 8.693-.67.781.332 5.462.332 5.462s12.364 0 18.045 2.565c5.681 2.565 26.621 7.69 29.296 9.247 2.674 1.558 12.59 8.567 12.59 8.567l.902-13.223s-10.249-8.471-27.065-12.815c-16.816-4.344-26.622-10.32-26.622-10.32z" fill="#EB5569"/><path opacity=".1" d="M179.678 236.723s17.486 18.942 16.595 24.188c-.892 5.246-16.595-24.188-16.595-24.188zM151.274 305.151s-12.817 11.817-16.595 12.487c-3.777.671 2.896 2.898 7.237 1.119 4.342-1.779 13.598-6.46 13.598-6.46l-4.24-7.146z" fill="#000"/><path d="M245.834 394.407h-29.89c-4.18-3.629-8.133-6.99-10.652-9.011-4.029-3.235-6.934-7.997-8.788-11.827a50.313 50.313 0 01-1.088-2.429 40.466 40.466 0 01-1.45-3.905l22.134-13.153a34.497 34.497 0 013.44 3.367l.267.307c1.229 1.451 2.312 3.099 2.407 4.45.111 1.572 4.483 7.654 8.95 13.495 4.532 5.941 9.176 11.62 9.483 12.003 0 0 .765 1.044 2.014 2.646.882 1.159 1.97 2.55 3.173 4.057z" fill="#FFB0B1"/><path opacity=".1" d="M205.242 139.097c-1.062 2.398-2.014 4.888-2.155 7.559-.398 7.71.247 24.949-8.285 28.819-4.225 1.905-8.748-2.277-13.381-2.378-3.334-.071-6.391 2.046-8.426 4.691-2.034 2.646-3.299 5.785-4.774 8.779a60.046 60.046 0 01-4.628 7.811 19.697 19.697 0 01-1.713 2.161 37.125 37.125 0 01-21.99-41.298 37.106 37.106 0 0119.642-26.011 37.07 37.07 0 0132.578-.47 37.094 37.094 0 0113.132 10.357v-.02z" fill="#000"/><path d="M202.417 145.295c-.403 7.71.247 24.949-8.29 28.815-4.225 1.904-8.748-2.273-13.381-2.374-3.334-.076-6.386 2.046-8.426 4.687-2.039 2.64-3.293 5.785-4.774 8.783a60.159 60.159 0 01-4.628 7.811c-1.038 1.471-2.186 2.948-3.783 3.774-2.78 1.452-6.149.635-9.13-.297a149.98 149.98 0 01-11.433-4.122c.086-.567.13-1.14.131-1.713-.111.211-.231.408-.352.619l-.237.414a45.329 45.329 0 00-1.229 2.287c-.146.298-.287.605-.413.913a11.621 11.621 0 00-.942 3.608c-.256 3.361 1.401 6.551 2.871 9.574 5.656 11.696 9.151 25.373 4.895 37.644-1.843 5.336-5.036 10.078-7.368 15.233a49.241 49.241 0 00-3.439 29.117c1.163 6.108 3.495 12.155 2.921 18.348-1.008 10.658-10.194 18.59-19.395 24.043-4.971 2.933-11.055 5.543-16.333 3.225 3.365-3.931 4.231-9.368 4.956-14.498a74312.071 74312.071 0 018.35-58.718c1.481-10.471 2.982-21.059 2.055-31.596-.675-7.766-2.579-16.01.786-23.04 1.777-3.724 4.945-6.808 5.932-10.819.811-3.26.056-6.727.59-10.048a17.083 17.083 0 011.47-4.354 21.4 21.4 0 013.374-5.15c-1.349-.393-2.608-.933-3.374-2.061 2.166-1.411 2.493-4.591 1.511-6.98-.982-2.388-2.946-4.208-4.714-6.092-1.768-1.885-3.47-4.082-3.691-6.652-.429-4.893 4.457-8.683 5.318-13.51.871-4.914-2.574-9.691-2.297-14.665.323-6.012 5.842-10.381 11.292-12.915a51.343 51.343 0 0126.329-4.536c7.343.696 14.449 2.968 21.772 3.85 4.417.504 8.894.555 13.28 1.331 4.387.776 8.784 2.413 11.871 5.634 8.138 8.491-1.612 15.48-2.075 24.43z" fill="#575A89"/><path opacity=".1" d="M195.608 373.574c-2.569-1.114-7.242-.448-15.265-2.892s-9.569-13.491-9.569-13.491v-.035c-.096-.252-.841-1.895-5.887-7.649-5.576-6.355-17.627-38.45-17.627-38.45s-10.687-11.485-10.35-15.718c.338-4.233-1.898-15.495-1.677-28.094.222-12.598 24.058-20.953 24.058-20.953 45.896-8.138 35.088 44.804 33.864 48.816-1.224 4.011 5.127 14.845 5.127 14.845-.896 4.717 3.676 12.019 3.676 12.019s1.108 6.46 1.335 8.914c.013.114.038.225.076.333.735 2.313 6.728 4.409 9.166 5.684 2.563 1.341 10.807 13.042 10.807 13.042 1.778 8.592-25.176 24.758-27.734 23.629z" fill="#000"/><path d="M196.943 371.558c-2.564-1.118-7.243-.448-15.26-2.897-8.018-2.449-9.569-13.485-9.569-13.485v-.036c-.091-.257-.841-1.894-5.888-7.649-5.575-6.355-17.626-38.455-17.626-38.455s-10.687-11.479-10.355-15.712c.332-4.233-1.894-15.496-1.672-28.084.222-12.588 24.043-20.938 24.043-20.938 45.895-8.139 35.088 44.804 33.864 48.815-1.224 4.011 5.127 14.846 5.127 14.846-.897 4.716 3.676 12.018 3.676 12.018s1.108 6.461 1.34 8.915c.008.113.032.225.07.332.736 2.314 6.729 4.41 9.171 5.685 2.559 1.335 10.808 13.041 10.808 13.041 1.788 8.577-25.166 24.743-27.729 23.604z" fill="#EB5569"/><path opacity=".1" d="M161.523 271.942s20.049 21.165 25.282 21.165c5.232 0-25.282-21.165-25.282-21.165z" fill="#000"/><path d="M196.942 371.558c-2.563-1.118-7.242-.448-15.259-2.897-8.018-2.449-9.569-13.485-9.569-13.485v-.035c5.313-3.528 18.77-13.491 24.073-17.134 3.732-2.555 6.779-6.309 8.562-8.799.735 2.313 6.728 4.41 9.171 5.685 2.558 1.335 10.807 13.041 10.807 13.041 1.733 8.597-25.221 24.763-27.785 23.624z" fill="#FF748E"/><g opacity=".1" fill="#000"><path opacity=".1" d="M123.851 175.455c.025.04.061.076.091.116.151-.192.307-.383.468-.564a3.66 3.66 0 01-.559.448zM135.535 198.555c.212-2.797 1.708-5.261 3.108-7.72-.917-.353-1.833-.711-2.74-1.083.086-.566.13-1.137.131-1.709-1.415 2.52-2.956 4.999-3.173 7.836-.257 3.367 1.4 6.551 2.871 9.575 5.661 11.691 9.151 25.368 4.895 37.643-1.848 5.332-5.036 10.079-7.368 15.234a49.223 49.223 0 00-3.435 29.112c1.154 6.113 3.49 12.155 2.916 18.348-1.007 10.658-10.188 18.59-19.394 24.037-3.762 2.228-8.159 4.269-12.364 4.122-.39.627-.824 1.225-1.3 1.789 5.283 2.334 11.362-.292 16.333-3.235 9.211-5.442 18.412-13.354 19.42-24.032.574-6.193-1.763-12.236-2.921-18.348a49.269 49.269 0 013.424-29.112c2.317-5.15 5.54-9.902 7.368-15.234 4.256-12.275.761-25.952-4.895-37.643-1.465-3.044-3.132-6.214-2.876-9.58z"/><path opacity=".1" d="M204.482 120.925a14.703 14.703 0 00-1.592-1.411c6.104 7.922-2.709 14.654-3.147 23.181-.393 7.71.251 24.954-8.285 28.814-4.22 1.91-8.748-2.272-13.376-2.373-3.339-.071-6.391 2.051-8.431 4.691-2.04 2.641-3.294 5.785-4.769 8.779a60.447 60.447 0 01-4.634 7.811c-1.007 1.476-2.185 2.948-3.787 3.779-2.77 1.446-6.139.635-9.126-.302a143.074 143.074 0 01-8.632-3.024 10.814 10.814 0 01-.131 1.567 147.182 147.182 0 0011.438 4.122c2.981.938 6.35 1.749 9.125.303 1.597-.832 2.755-2.308 3.788-3.785a59.512 59.512 0 004.628-7.805c1.481-2.994 2.73-6.143 4.774-8.784 2.045-2.641 5.092-4.757 8.426-4.686 4.633.1 9.161 4.283 13.381 2.373 8.537-3.86 7.887-21.104 8.285-28.815.463-8.964 10.213-15.949 2.065-24.435z"/></g><path opacity=".1" d="M138.119 191.697a45.766 45.766 0 00-1.229 2.287c-.146.298-.287.605-.413.913-2.639-2.661-9.065-8.985-12.651-10.946a21.499 21.499 0 013.374-5.15s8.547 4.52 10.919 12.896z" fill="#000"/><path d="M138.356 191.284c-1.979-8.965-11.156-13.818-11.156-13.818a21.4 21.4 0 00-3.374 5.15c3.782 2.071 10.753 9.015 13.064 11.369l1.466-2.701z" fill="#EB5569"/><defs><linearGradient id="bpaint0_linear_4_6" x1="368.094" y1="48.072" x2="368.094" y2="38.81" gradientUnits="userSpaceOnUse"><stop stop-color="gray" stop-opacity=".25"/><stop offset=".54" stop-color="gray" stop-opacity=".12"/><stop offset="1" stop-color="gray" stop-opacity=".1"/></linearGradient><linearGradient id="bpaint1_linear_4_6" x1="231050" y1="331838" x2="231050" y2="23136.5" gradientUnits="userSpaceOnUse"><stop stop-color="gray" stop-opacity=".25"/><stop offset=".54" stop-color="gray" stop-opacity=".12"/><stop offset="1" stop-color="gray" stop-opacity=".1"/></linearGradient></defs></svg><svg fill="none" viewBox="0 0 88 73" id="heart" xmlns="http://www.w3.org/2000/svg"><path d="M24.581.968c-6.376 0-12.492 2.502-17 6.955A23.602 23.602 0 00.539 24.716c0 2.159.393 4.318.961 6.477h17.836l5.552-14.552c1.31-3.454 6.47-3.8 8.13 0l9.05 23.187 2.578-6.131c.569-1.425 2.099-2.504 3.978-2.504h38.381c.569-2.16.962-4.318.962-6.477a23.602 23.602 0 00-7.042-16.793C76.416 3.47 70.301.968 63.925.968c-8.131 0-15.3 4.015-19.672 10.104C39.882 4.982 32.713.968 24.58.968zM4.911 37.669c-1.16 0-2.272.455-3.092 1.265a4.291 4.291 0 00-1.28 3.053c0 1.145.46 2.244 1.28 3.053a4.399 4.399 0 003.091 1.265h10.666l24.306 23.748c4.37 3.886 4.37 3.886 8.742 0L72.93 46.305h10.666c1.16 0 2.271-.455 3.09-1.265a4.291 4.291 0 001.281-3.053c0-1.145-.46-2.243-1.28-3.053a4.399 4.399 0 00-3.091-1.265H50.373L46.307 47.6c-1.748 4.361-6.775 3.757-8.393.13l-8.961-23.014-4.197 10.06c-.655 1.641-2.142 2.893-4.109 2.893H4.91z" fill="#EC5863"/></svg><svg fill="none" viewBox="0 0 140 40" id="logo" xmlns="http://www.w3.org/2000/svg"><path d="M51.462 26.142c-1.728 0-3.078-.42-4.05-1.26-.972-.853-1.488-2.059-1.548-3.619-.012-.348-.018-.9-.018-1.655 0-.756.006-1.309.018-1.657.06-1.524.582-2.7 1.566-3.527.996-.829 2.34-1.242 4.032-1.242 1.14 0 2.13.185 2.97.557.852.372 1.5.846 1.944 1.422.456.577.696 1.17.72 1.783a.341.341 0 01-.126.27.366.366 0 01-.27.108h-2.628a.649.649 0 01-.288-.055.42.42 0 01-.18-.197 2.293 2.293 0 00-.738-.9c-.336-.265-.804-.397-1.404-.397-1.428 0-2.178.756-2.25 2.268-.012.337-.018.858-.018 1.567 0 .695.006 1.218.018 1.566.072 1.584.84 2.375 2.304 2.375.708 0 1.272-.18 1.692-.54.432-.372.648-.936.648-1.692v-.341h-1.692a.439.439 0 01-.324-.127.502.502 0 01-.126-.341v-1.332c0-.132.042-.24.126-.324a.41.41 0 01.324-.145H56.7a.41.41 0 01.324.145.439.439 0 01.126.323v2.052c0 1.02-.234 1.902-.702 2.646-.468.732-1.134 1.296-1.998 1.692-.852.384-1.848.576-2.988.576zm11.983 0c-1.488 0-2.634-.354-3.438-1.063-.804-.707-1.242-1.704-1.314-2.988a12.258 12.258 0 01-.018-.81c0-.383.006-.653.018-.81.072-1.271.522-2.262 1.35-2.97.828-.72 1.962-1.08 3.402-1.08 1.452 0 2.592.36 3.42 1.08.828.708 1.278 1.698 1.35 2.97.012.157.018.427.018.81 0 .385-.006.655-.018.81-.072 1.284-.51 2.28-1.314 2.988-.804.709-1.956 1.063-3.456 1.063zm0-2.197c.528 0 .918-.155 1.17-.468.252-.323.396-.816.432-1.476.012-.12.018-.36.018-.72s-.006-.6-.018-.72c-.036-.648-.186-1.134-.45-1.457-.252-.325-.636-.486-1.152-.486-.996 0-1.524.648-1.584 1.944l-.018.72.018.72c.024.66.162 1.152.414 1.476.264.311.654.467 1.17.467z" fill="#000"/><path d="M75.385 26.142c-1.716 0-3.06-.415-4.032-1.242-.96-.84-1.47-2.052-1.53-3.636a48.41 48.41 0 01-.018-1.584c0-.744.006-1.285.018-1.62.06-1.56.582-2.76 1.566-3.6.984-.853 2.316-1.279 3.996-1.279 1.056 0 2.004.18 2.844.54.84.348 1.5.852 1.98 1.512.492.649.744 1.41.756 2.287v.035c0 .096-.042.18-.126.253a.382.382 0 01-.252.09h-2.43c-.156 0-.276-.03-.36-.09-.084-.073-.156-.198-.216-.378-.168-.613-.432-1.038-.792-1.279-.36-.252-.834-.377-1.422-.377-1.416 0-2.148.792-2.196 2.376a44.56 44.56 0 00-.018 1.494c0 .672.006 1.182.018 1.53.048 1.584.78 2.375 2.196 2.375.588 0 1.068-.125 1.44-.377.372-.265.63-.69.774-1.279.048-.18.114-.3.198-.36.084-.072.21-.108.378-.108h2.43c.108 0 .198.037.27.108.084.072.12.162.108.27-.012.877-.264 1.645-.756 2.305-.48.648-1.14 1.151-1.98 1.511-.84.349-1.788.523-2.844.523zm11.703 0c-1.488 0-2.634-.354-3.438-1.063-.804-.707-1.242-1.704-1.314-2.988a12.258 12.258 0 01-.018-.81c0-.383.006-.653.018-.81.072-1.271.522-2.262 1.35-2.97.828-.72 1.962-1.08 3.402-1.08 1.452 0 2.592.36 3.42 1.08.828.708 1.278 1.698 1.35 2.97.012.157.018.427.018.81 0 .385-.006.655-.018.81-.072 1.284-.51 2.28-1.314 2.988-.804.709-1.956 1.063-3.456 1.063zm0-2.197c.528 0 .918-.155 1.17-.468.252-.323.396-.816.432-1.476.012-.12.018-.36.018-.72s-.006-.6-.018-.72c-.036-.648-.186-1.134-.45-1.457-.252-.325-.636-.486-1.152-.486-.996 0-1.524.648-1.584 1.944l-.018.72.018.72c.024.66.162 1.152.414 1.476.264.311.654.467 1.17.467zm7.026 2.017a.439.439 0 01-.324-.127.439.439 0 01-.126-.323v-8.46c0-.133.042-.24.126-.325a.439.439 0 01.324-.125h2.07a.41.41 0 01.324.143.392.392 0 01.144.306v.72c.66-.78 1.548-1.17 2.664-1.17h.792c.132 0 .24.043.324.127a.439.439 0 01.126.323v1.855a.48.48 0 01-.126.324.439.439 0 01-.324.125h-1.746c-.492 0-.876.139-1.152.415-.264.264-.396.642-.396 1.134v4.608a.41.41 0 01-.144.323.439.439 0 01-.324.127h-2.232zm12.064.18c-1.488 0-2.634-.354-3.438-1.063-.804-.707-1.242-1.704-1.314-2.988a12.258 12.258 0 01-.018-.81c0-.383.006-.653.018-.81.072-1.271.522-2.262 1.35-2.97.828-.72 1.962-1.08 3.402-1.08 1.452 0 2.592.36 3.42 1.08.828.708 1.278 1.698 1.35 2.97.012.157.018.427.018.81 0 .385-.006.655-.018.81-.072 1.284-.51 2.28-1.314 2.988-.804.709-1.956 1.063-3.456 1.063zm0-2.197c.528 0 .918-.155 1.17-.468.252-.323.396-.816.432-1.476.012-.12.018-.36.018-.72s-.006-.6-.018-.72c-.036-.648-.186-1.134-.45-1.457-.252-.325-.636-.486-1.152-.486-.996 0-1.524.648-1.584 1.944l-.018.72.018.72c.024.66.162 1.152.414 1.476.264.311.654.467 1.17.467zm7.025 2.017a.439.439 0 01-.324-.127.439.439 0 01-.126-.323v-8.46c0-.133.042-.24.126-.325a.439.439 0 01.324-.125h2.07c.132 0 .24.041.324.125a.41.41 0 01.144.325v.683a3.545 3.545 0 011.242-.953c.516-.24 1.098-.36 1.746-.36 1.056 0 1.914.36 2.574 1.08.66.707.99 1.704.99 2.988v5.022a.48.48 0 01-.126.323.439.439 0 01-.324.127h-2.268a.48.48 0 01-.324-.127.48.48 0 01-.126-.323v-4.915c0-.564-.138-.995-.414-1.296-.276-.311-.672-.467-1.188-.467-.504 0-.9.155-1.188.468-.288.3-.432.732-.432 1.296v4.914a.48.48 0 01-.126.323.439.439 0 01-.324.127h-2.25zm13.925.18a4.17 4.17 0 01-1.746-.36 3.187 3.187 0 01-1.224-1.009 2.51 2.51 0 01-.432-1.421c0-.829.336-1.494 1.008-1.998.684-.505 1.62-.852 2.808-1.044l2.25-.342v-.253c0-.456-.096-.791-.288-1.008-.192-.216-.516-.323-.972-.323-.276 0-.504.047-.684.143-.18.096-.366.229-.558.396-.168.145-.294.24-.378.289-.036.096-.102.143-.198.143h-1.962a.454.454 0 01-.306-.108.364.364 0 01-.09-.288c.012-.323.168-.683.468-1.08.312-.396.78-.738 1.404-1.026.636-.288 1.416-.431 2.34-.431 1.476 0 2.568.33 3.276.99.708.648 1.062 1.524 1.062 2.628v5.472a.48.48 0 01-.126.323.439.439 0 01-.324.127h-2.088a.48.48 0 01-.324-.127.48.48 0 01-.126-.323v-.63c-.264.371-.636.677-1.116.917-.468.229-1.026.343-1.674.343zm.846-2.052c.552 0 .996-.18 1.332-.54.348-.36.522-.889.522-1.585v-.252l-1.53.27c-1.08.192-1.62.57-1.62 1.134 0 .3.126.54.378.72.252.169.558.253.918.253zM14.22 4.989c1.425-.5 2.991.174 3.497 1.504.388 1.018.041 2.125-.78 2.812l.443 1.211.707.816a.738.738 0 00.651.245 8.649 8.649 0 011.961-.017.735.735 0 00.592-.2l.51-.494.375-1.094a1.717 1.717 0 01-.238-1.573 1.739 1.739 0 012.307-1.036 1.732 1.732 0 011.008 2.059c-.15.53-.529.928-.995 1.125l-.416 1.212.094.669c.033.23.17.43.369.55.67.407 1.285.904 1.825 1.478a.769.769 0 00.713.224l1.34-.269 1.513-.84a2.142 2.142 0 011.106-1.851 2.163 2.163 0 012.964.882c.509.97.19 2.19-.733 2.787-.72.466-1.6.449-2.278.051l-1.522.844-.85.903a.953.953 0 00-.223.906l.001.005c.15.553.24 1.108.277 1.659a.955.955 0 00.498.78l1.11.598 2.2.415a1.74 1.74 0 011.467-.399 1.728 1.728 0 011.358 2.129 1.744 1.744 0 01-1.899 1.28 1.733 1.733 0 01-1.314-.9l-2.214-.417-1.365.166a.723.723 0 00-.574.419 8.695 8.695 0 01-1.669 2.47.715.715 0 00-.175.676l.34 1.31.837 1.31c.922-.138 1.88.26 2.413 1.092a2.407 2.407 0 01-.723 3.319 2.449 2.449 0 01-3.355-.697 2.402 2.402 0 01-.102-2.482l-.89-1.39-1.093-.898a.597.597 0 00-.58-.098 8.656 8.656 0 01-4.359.38.594.594 0 00-.487.136l-.587.508-.436 1.072c.295.456.37 1.042.15 1.583a1.74 1.74 0 01-2.361.908 1.731 1.731 0 01-.891-2.111c.179-.522.579-.898 1.056-1.069l.483-1.188-.09-1.043a8.664 8.664 0 01-2.282-2.069l-1.49.147-1.396.688c.009.934-.473 1.822-1.319 2.252-1.195.607-2.663.07-3.278-1.2-.615-1.27-.146-2.792 1.05-3.399.893-.454 1.94-.268 2.668.387l1.316-.649.913-.977a.252.252 0 00.06-.238 8.51 8.51 0 01.044-4.607.249.249 0 00-.048-.23l-.788-.938-1.698-.889a1.74 1.74 0 01-1.51-.05 1.722 1.722 0 01-.673-2.428 1.75 1.75 0 012.24-.653c.516.25.849.717.947 1.234l1.698.888 1.208.113a.252.252 0 00.22-.092 8.601 8.601 0 011.941-1.76.734.734 0 00.333-.6l.013-1.094-.474-1.29c-1.027-.074-1.956-.694-2.324-1.661-.506-1.33.239-2.813 1.664-3.312z" fill="#EC5863"/><path d="M25.99 18.477c-.917-3.403-4.434-5.423-7.856-4.511-3.421.912-5.452 4.41-4.535 7.813.917 3.402 4.434 5.422 7.855 4.51 3.422-.912 5.453-4.41 4.536-7.813z" fill="#F58A97"/><path d="M20.948 24.41c-3.1.827-6.28-.753-7.53-3.59.035.32.095.64.18.959.918 3.402 4.435 5.422 7.856 4.51 3.422-.912 5.453-4.41 4.536-7.813a6.411 6.411 0 00-.325-.92c.342 3.079-1.616 6.029-4.717 6.855z" fill="#F07281"/><path d="M11.324 33.496a1.828 1.828 0 00-2.237-1.285 1.815 1.815 0 00-1.292 2.225 1.828 1.828 0 002.238 1.285 1.815 1.815 0 001.291-2.225zM34.11 27.938a1.207 1.207 0 00-2.33.621 1.207 1.207 0 002.33-.621zM30.843 6.002a1.778 1.778 0 00-2.177-1.25 1.766 1.766 0 00-1.256 2.165 1.778 1.778 0 002.176 1.25 1.766 1.766 0 001.257-2.165zM20.195 22.048a1.658 1.658 0 00-2.029-1.165 1.647 1.647 0 00-1.171 2.018 1.658 1.658 0 002.029 1.165 1.647 1.647 0 001.171-2.018zM24.31 19.582a1.128 1.128 0 00-2.178.58 1.128 1.128 0 002.179-.58zM19.958 17.096a.947.947 0 00-1.83.488.947.947 0 001.83-.488z" fill="#EB5569"/></svg><svg fill="none" viewBox="0 0 65 73" id="man" xmlns="http://www.w3.org/2000/svg"><path d="M64.481 25.61H43.053v46.8H35.91v-21.6h-7.143v21.6h-7.143v-46.8H.196v-7.2H64.48v7.2zM32.34.41c1.894 0 3.71.759 5.05 2.109a7.23 7.23 0 012.092 5.091 7.23 7.23 0 01-2.092 5.091 7.114 7.114 0 01-5.05 2.11 7.114 7.114 0 01-5.051-2.11 7.23 7.23 0 01-2.092-5.09c0-3.997 3.178-7.2 7.143-7.2z" fill="#EC5863"/></svg><svg fill="none" viewBox="0 0 44 44" id="video" xmlns="http://www.w3.org/2000/svg"><circle cx="22" cy="22" r="21.5" stroke="#4285F4"/><path d="M18.833 16.515l9.5 5.485-9.5 5.485v-10.97z" stroke="#4285F4"/></svg></svg>